<svg width="1440" height="1244" viewBox="0 0 1440 1244" fill="none" xmlns="http://www.w3.org/2000/svg">
<g filter="url(#filter0_f_98_330)">
<mask id="mask0_98_330" style="mask-type:alpha" maskUnits="userSpaceOnUse" x="132" y="247" width="157" height="156">
<rect x="132.341" y="247.046" width="155.749" height="155.749" rx="70.4048" fill="white"/>
</mask>
<g mask="url(#mask0_98_330)">
<g style="mix-blend-mode:overlay" filter="url(#filter1_f_98_330)">
<circle cx="169.497" cy="373.784" r="71.1736" fill="#47379E" fill-opacity="0.5"/>
</g>
<g style="mix-blend-mode:overlay" filter="url(#filter2_f_98_330)">
<circle cx="261.623" cy="373.783" r="74.1594" fill="#5602FF" fill-opacity="0.5"/>
</g>
<g style="mix-blend-mode:overlay" filter="url(#filter3_f_98_330)">
<circle cx="380.115" cy="251.75" r="73.1707" fill="#0015FF" fill-opacity="0.5"/>
</g>
<g style="mix-blend-mode:overlay" filter="url(#filter4_f_98_330)">
<circle cx="173.679" cy="280.749" r="70.3502" fill="#EA5705" fill-opacity="0.5"/>
</g>
</g>
</g>
<g filter="url(#filter5_f_98_330)">
<mask id="mask1_98_330" style="mask-type:alpha" maskUnits="userSpaceOnUse" x="1192" y="378" width="156" height="156">
<rect x="1192.12" y="378.221" width="155.749" height="155.749" rx="70.4048" fill="white"/>
</mask>
<g mask="url(#mask1_98_330)">
<g style="mix-blend-mode:overlay" filter="url(#filter6_f_98_330)">
<circle cx="1229.27" cy="504.959" r="71.1736" fill="#47379E" fill-opacity="0.5"/>
</g>
<g style="mix-blend-mode:overlay" filter="url(#filter7_f_98_330)">
<circle cx="1321.4" cy="504.959" r="74.1594" fill="#5602FF" fill-opacity="0.5"/>
</g>
<g style="mix-blend-mode:overlay" filter="url(#filter8_f_98_330)">
<circle cx="1439.89" cy="382.925" r="73.1707" fill="#0015FF" fill-opacity="0.5"/>
</g>
<g style="mix-blend-mode:overlay" filter="url(#filter9_f_98_330)">
<circle cx="1233.46" cy="411.925" r="70.3502" fill="#EA5705" fill-opacity="0.5"/>
</g>
</g>
</g>
<g filter="url(#filter10_f_98_330)">
<mask id="mask2_98_330" style="mask-type:alpha" maskUnits="userSpaceOnUse" x="651" y="318" width="157" height="157">
<rect x="651.854" y="318.934" width="155.749" height="155.749" rx="70.4048" fill="white"/>
</mask>
<g mask="url(#mask2_98_330)">
<g style="mix-blend-mode:overlay" filter="url(#filter11_f_98_330)">
<circle cx="689.01" cy="445.67" r="71.1736" fill="#47379E" fill-opacity="0.5"/>
</g>
<g style="mix-blend-mode:overlay" filter="url(#filter12_f_98_330)">
<circle cx="781.136" cy="445.67" r="74.1594" fill="#5602FF" fill-opacity="0.5"/>
</g>
<g style="mix-blend-mode:overlay" filter="url(#filter13_f_98_330)">
<circle cx="899.628" cy="323.637" r="73.1707" fill="#0015FF" fill-opacity="0.5"/>
</g>
<g style="mix-blend-mode:overlay" filter="url(#filter14_f_98_330)">
<circle cx="693.192" cy="352.637" r="70.3502" fill="#EA5705" fill-opacity="0.5"/>
</g>
</g>
</g>
<path d="M-96.5968 442.834C-49.6084 413.897 150.976 186.116 902.955 313.936C1654.93 441.756 1861.58 344.474 1951.5 130.502" stroke="white" stroke-opacity="0.54" stroke-width="0.956708" stroke-miterlimit="10"/>
<path d="M-96.198 434.881C-51.4453 407.306 154.444 190.879 900.174 321.699C1645.9 452.519 1858.01 327.52 1943.72 123.697" stroke="white" stroke-opacity="0.54" stroke-width="0.956708" stroke-miterlimit="10"/>
<path d="M-95.7602 426.935C-53.2496 400.739 157.892 195.736 897.475 329.801C1637.06 463.867 1854.61 311.202 1936.03 117.567" stroke="white" stroke-opacity="0.54" stroke-width="0.956708" stroke-miterlimit="10"/>
<path d="M-95.3229 418.981C-55.0445 394.163 161.331 200.596 894.775 337.896C1628.22 475.196 1851.21 294.877 1928.35 111.438" stroke="white" stroke-opacity="0.54" stroke-width="0.956708" stroke-miterlimit="10"/>
<path d="M-94.8866 411.023C-56.8502 387.585 164.778 205.442 892.072 345.978C1619.37 486.514 1847.81 278.539 1920.66 105.287" stroke="white" stroke-opacity="0.54" stroke-width="0.956708" stroke-miterlimit="10"/>
<path d="M-94.4583 403.079C-58.6542 381.019 168.217 210.311 889.354 354.084C1610.49 497.857 1844.4 262.225 1912.96 99.1697" stroke="white" stroke-opacity="0.54" stroke-width="0.956708" stroke-miterlimit="10"/>
<path d="M-94.0213 395.121C-60.4592 374.441 171.666 215.166 886.654 362.175C1601.64 509.184 1841 245.897 1905.27 93.0282" stroke="white" stroke-opacity="0.54" stroke-width="0.956708" stroke-miterlimit="10"/>
<path d="M-93.5846 387.166C-62.2548 367.863 175.113 220.015 883.952 370.26C1592.79 520.504 1837.6 229.561 1897.58 86.8892" stroke="white" stroke-opacity="0.54" stroke-width="0.956708" stroke-miterlimit="10"/>
<path d="M-93.1477 379.209C-64.06 361.285 178.551 224.872 881.251 378.351C1583.95 531.831 1834.19 213.234 1889.91 80.7468" stroke="white" stroke-opacity="0.54" stroke-width="0.956708" stroke-miterlimit="10"/>
<path d="M-92.71 371.263C-65.8544 354.718 181.999 229.73 878.542 386.455C1575.08 543.181 1830.78 196.918 1882.21 74.6277" stroke="white" stroke-opacity="0.54" stroke-width="0.956708" stroke-miterlimit="10"/>
<path d="M-92.2733 363.308C-67.6598 348.141 185.447 234.587 875.84 394.539C1566.23 554.492 1827.38 180.582 1874.52 68.4789" stroke="white" stroke-opacity="0.54" stroke-width="0.956708" stroke-miterlimit="10"/>
<path d="M-91.8457 355.352C-69.4743 341.566 188.875 239.437 873.13 402.633C1557.39 565.829 1823.97 164.256 1866.83 62.3491" stroke="url(#paint0_linear_98_330)" stroke-opacity="0.11" stroke-width="0.956708" stroke-miterlimit="10"/>
<path d="M-91.408 347.405C-71.2688 334.997 192.325 244.302 870.431 410.735C1548.54 577.167 1820.57 147.938 1859.14 56.2181" stroke="white" stroke-opacity="0.54" stroke-width="0.956708" stroke-miterlimit="10"/>
<path d="M-90.9711 339.447C-73.074 328.418 195.772 249.148 867.719 418.817C1539.67 588.487 1817.17 131.61 1851.45 50.0773" stroke="white" stroke-opacity="0.54" stroke-width="0.956708" stroke-miterlimit="10"/>
<path d="M-90.5344 331.493C-74.8695 321.841 199.22 254.006 865.019 426.911C1530.82 599.817 1813.76 115.285 1843.76 43.9388" stroke="white" stroke-opacity="0.54" stroke-width="0.956708" stroke-miterlimit="10"/>
<path d="M-90.0964 323.544C-76.6735 315.272 202.658 258.863 862.32 435.012C1521.98 611.161 1810.36 98.9654 1836.07 37.8156" stroke="white" stroke-opacity="0.54" stroke-width="0.956708" stroke-miterlimit="10"/>
<path d="M-89.6596 315.59C-78.469 308.696 206.106 263.722 859.619 443.107C1513.13 622.491 1806.95 82.6323 1828.38 31.6789" stroke="white" stroke-opacity="0.54" stroke-width="0.956708" stroke-miterlimit="10"/>
<path d="M-89.233 307.636C-80.2844 302.121 209.544 268.58 856.897 451.193C1504.25 633.806 1803.55 66.3057 1820.69 25.5395" stroke="white" stroke-opacity="0.54" stroke-width="0.956708" stroke-miterlimit="10"/>
<path d="M-88.7954 299.68C-82.079 295.543 212.983 273.429 854.198 459.286C1495.41 645.142 1800.14 49.9796 1813 19.4098" stroke="url(#paint1_linear_98_330)" stroke-opacity="0.17" stroke-width="0.956708" stroke-miterlimit="10"/>
<path d="M-88.3582 291.731C-83.8839 288.974 216.431 278.293 851.497 467.386C1486.56 656.479 1796.74 33.6509 1805.31 13.2684" stroke="url(#paint2_linear_98_330)" stroke-opacity="0.15" stroke-width="0.956708" stroke-miterlimit="10"/>
<path d="M-87.4845 275.82C-87.4845 275.82 223.327 287.999 846.085 483.564C1468.84 679.13 1789.93 0.999982 1789.93 0.999982" stroke="white" stroke-opacity="0.21" stroke-width="0.956708" stroke-miterlimit="10"/>
<path d="M-82.6255 290.15C-81.6113 288.827 233.429 276.982 845.556 471.258C1457.68 665.534 1777.25 36.2685 1792.62 30.2829" stroke="white" stroke-opacity="0.21" stroke-width="0.956708" stroke-miterlimit="10"/>
<path d="M-77.7658 304.492C-75.7375 301.845 243.543 265.985 845.028 458.973C1446.51 651.96 1764.58 71.539 1795.31 59.5689" stroke="white" stroke-opacity="0.21" stroke-width="0.956708" stroke-miterlimit="10"/>
<path d="M-72.906 318.823C-69.8636 314.854 253.657 254.978 844.489 446.669C1435.32 638.36 1751.89 106.791 1798.01 88.8538" stroke="white" stroke-opacity="0.21" stroke-width="0.956708" stroke-miterlimit="10"/>
<path d="M-68.048 333.151C-64.0012 327.86 263.768 243.958 843.959 434.37C1424.15 624.781 1739.2 142.059 1800.69 118.136" stroke="white" stroke-opacity="0.21" stroke-width="0.956708" stroke-miterlimit="10"/>
<path d="M-63.1893 347.483C-58.1284 340.869 273.88 232.951 843.429 422.066C1412.98 611.18 1726.52 177.321 1803.38 147.413" stroke="white" stroke-opacity="0.21" stroke-width="0.956708" stroke-miterlimit="10"/>
<path d="M-58.32 361.814C-52.245 353.876 283.993 221.935 842.901 409.77C1401.81 597.605 1713.85 212.591 1806.08 176.698" stroke="white" stroke-opacity="0.21" stroke-width="0.956708" stroke-miterlimit="10"/>
<path d="M-53.4621 376.142C-46.3729 366.881 294.105 210.924 842.371 397.471C1390.64 584.017 1701.17 247.848 1808.77 205.979" stroke="white" stroke-opacity="0.21" stroke-width="0.956708" stroke-miterlimit="10"/>
<path d="M-48.6026 390.474C-40.4993 379.889 304.218 199.909 841.841 385.167C1379.47 570.425 1688.49 283.11 1811.45 235.256" stroke="white" stroke-opacity="0.21" stroke-width="0.956708" stroke-miterlimit="10"/>
<path d="M-43.7432 404.813C-34.6258 392.905 314.331 188.909 841.312 372.869C1368.29 556.83 1675.81 318.379 1814.15 264.539" stroke="white" stroke-opacity="0.21" stroke-width="0.956708" stroke-miterlimit="10"/>
<path d="M-38.8838 419.144C-28.7522 405.913 324.445 177.901 840.774 360.575C1357.1 543.248 1663.13 353.649 1816.83 293.825" stroke="white" stroke-opacity="0.21" stroke-width="0.956708" stroke-miterlimit="10"/>
<path d="M-34.0249 433.476C-22.8792 418.922 334.557 166.885 840.244 348.27C1345.93 529.655 1650.45 388.901 1819.52 323.101" stroke="white" stroke-opacity="0.21" stroke-width="0.956708" stroke-miterlimit="10"/>
<path d="M-29.1561 447.804C-17.0061 431.928 344.67 155.876 839.725 335.971C1334.78 516.067 1637.78 424.169 1822.23 352.392" stroke="white" stroke-opacity="0.21" stroke-width="0.956708" stroke-miterlimit="10"/>
<path d="M-24.2973 462.136C-11.1332 444.937 354.782 144.86 839.185 323.668C1323.59 502.476 1625.09 459.432 1824.91 381.669" stroke="white" stroke-opacity="0.21" stroke-width="0.956708" stroke-miterlimit="10"/>
<path d="M-19.4387 476.47C-5.26043 457.948 364.894 133.855 838.656 311.375C1312.42 488.894 1612.42 494.703 1827.6 410.956" stroke="white" stroke-opacity="0.21" stroke-width="0.956708" stroke-miterlimit="10"/>
<path d="M-14.5798 490.797C0.612646 470.952 375.007 122.844 838.126 299.066C1301.24 475.288 1599.73 529.951 1830.3 440.228" stroke="white" stroke-opacity="0.21" stroke-width="0.956708" stroke-miterlimit="10"/>
<path d="M-9.72032 505.128C6.48624 483.96 385.12 111.828 837.588 286.771C1290.06 461.715 1587.05 565.223 1832.98 469.514" stroke="white" stroke-opacity="0.21" stroke-width="0.956708" stroke-miterlimit="10"/>
<path d="M-4.86078 519.469C12.3599 496.978 395.224 100.831 837.058 274.476C1278.89 448.121 1574.37 600.493 1835.68 498.799" stroke="white" stroke-opacity="0.21" stroke-width="0.956708" stroke-miterlimit="10"/>
<path d="M0.00818833 533.798C18.243 509.983 405.345 89.8117 836.539 262.177C1267.73 434.543 1561.7 635.76 1838.37 528.082" stroke="white" stroke-opacity="0.21" stroke-width="0.956708" stroke-miterlimit="10"/>
<path d="M4.86676 548.129C24.1059 522.992 415.458 78.8042 835.999 249.873C1256.54 420.943 1549.01 671.013 1841.05 557.358" stroke="white" stroke-opacity="0.21" stroke-width="0.956708" stroke-miterlimit="10"/>
<path d="M9.72519 562.46C29.9785 536.001 425.571 67.7971 835.47 237.578C1245.37 407.358 1536.33 706.283 1843.74 586.643" stroke="white" stroke-opacity="0.21" stroke-width="0.956708" stroke-miterlimit="10"/>
<path d="M14.5838 576.79C35.8512 549.007 435.683 56.7786 834.94 225.271C1234.2 393.763 1523.65 741.542 1846.44 615.926" stroke="white" stroke-opacity="0.24" stroke-width="0.956708" stroke-miterlimit="10"/>
<defs>
<filter id="filter0_f_98_330" x="8.35425" y="123.06" width="403.723" height="403.722" filterUnits="userSpaceOnUse" color-interpolation-filters="sRGB">
<feFlood flood-opacity="0" result="BackgroundImageFix"/>
<feBlend mode="normal" in="SourceGraphic" in2="BackgroundImageFix" result="shape"/>
<feGaussianBlur stdDeviation="61.9933" result="effect1_foregroundBlur_98_330"/>
</filter>
<filter id="filter1_f_98_330" x="-5.30851" y="198.978" width="349.611" height="349.611" filterUnits="userSpaceOnUse" color-interpolation-filters="sRGB">
<feFlood flood-opacity="0" result="BackgroundImageFix"/>
<feBlend mode="normal" in="SourceGraphic" in2="BackgroundImageFix" result="shape"/>
<feGaussianBlur stdDeviation="51.8159" result="effect1_foregroundBlur_98_330"/>
</filter>
<filter id="filter2_f_98_330" x="79.4843" y="191.645" width="364.277" height="364.277" filterUnits="userSpaceOnUse" color-interpolation-filters="sRGB">
<feFlood flood-opacity="0" result="BackgroundImageFix"/>
<feBlend mode="normal" in="SourceGraphic" in2="BackgroundImageFix" result="shape"/>
<feGaussianBlur stdDeviation="53.9896" result="effect1_foregroundBlur_98_330"/>
</filter>
<filter id="filter3_f_98_330" x="200.404" y="72.0399" width="359.421" height="359.421" filterUnits="userSpaceOnUse" color-interpolation-filters="sRGB">
<feFlood flood-opacity="0" result="BackgroundImageFix"/>
<feBlend mode="normal" in="SourceGraphic" in2="BackgroundImageFix" result="shape"/>
<feGaussianBlur stdDeviation="53.2698" result="effect1_foregroundBlur_98_330"/>
</filter>
<filter id="filter4_f_98_330" x="0.895859" y="107.966" width="345.566" height="345.566" filterUnits="userSpaceOnUse" color-interpolation-filters="sRGB">
<feFlood flood-opacity="0" result="BackgroundImageFix"/>
<feBlend mode="normal" in="SourceGraphic" in2="BackgroundImageFix" result="shape"/>
<feGaussianBlur stdDeviation="51.2164" result="effect1_foregroundBlur_98_330"/>
</filter>
<filter id="filter5_f_98_330" x="1068.13" y="254.235" width="403.723" height="403.722" filterUnits="userSpaceOnUse" color-interpolation-filters="sRGB">
<feFlood flood-opacity="0" result="BackgroundImageFix"/>
<feBlend mode="normal" in="SourceGraphic" in2="BackgroundImageFix" result="shape"/>
<feGaussianBlur stdDeviation="61.9933" result="effect1_foregroundBlur_98_330"/>
</filter>
<filter id="filter6_f_98_330" x="1054.47" y="330.154" width="349.611" height="349.611" filterUnits="userSpaceOnUse" color-interpolation-filters="sRGB">
<feFlood flood-opacity="0" result="BackgroundImageFix"/>
<feBlend mode="normal" in="SourceGraphic" in2="BackgroundImageFix" result="shape"/>
<feGaussianBlur stdDeviation="51.8159" result="effect1_foregroundBlur_98_330"/>
</filter>
<filter id="filter7_f_98_330" x="1139.26" y="322.82" width="364.277" height="364.277" filterUnits="userSpaceOnUse" color-interpolation-filters="sRGB">
<feFlood flood-opacity="0" result="BackgroundImageFix"/>
<feBlend mode="normal" in="SourceGraphic" in2="BackgroundImageFix" result="shape"/>
<feGaussianBlur stdDeviation="53.9896" result="effect1_foregroundBlur_98_330"/>
</filter>
<filter id="filter8_f_98_330" x="1260.18" y="203.215" width="359.421" height="359.421" filterUnits="userSpaceOnUse" color-interpolation-filters="sRGB">
<feFlood flood-opacity="0" result="BackgroundImageFix"/>
<feBlend mode="normal" in="SourceGraphic" in2="BackgroundImageFix" result="shape"/>
<feGaussianBlur stdDeviation="53.2698" result="effect1_foregroundBlur_98_330"/>
</filter>
<filter id="filter9_f_98_330" x="1060.67" y="239.142" width="345.566" height="345.566" filterUnits="userSpaceOnUse" color-interpolation-filters="sRGB">
<feFlood flood-opacity="0" result="BackgroundImageFix"/>
<feBlend mode="normal" in="SourceGraphic" in2="BackgroundImageFix" result="shape"/>
<feGaussianBlur stdDeviation="51.2164" result="effect1_foregroundBlur_98_330"/>
</filter>
<filter id="filter10_f_98_330" x="527.868" y="194.947" width="403.723" height="403.722" filterUnits="userSpaceOnUse" color-interpolation-filters="sRGB">
<feFlood flood-opacity="0" result="BackgroundImageFix"/>
<feBlend mode="normal" in="SourceGraphic" in2="BackgroundImageFix" result="shape"/>
<feGaussianBlur stdDeviation="61.9933" result="effect1_foregroundBlur_98_330"/>
</filter>
<filter id="filter11_f_98_330" x="514.205" y="270.865" width="349.611" height="349.611" filterUnits="userSpaceOnUse" color-interpolation-filters="sRGB">
<feFlood flood-opacity="0" result="BackgroundImageFix"/>
<feBlend mode="normal" in="SourceGraphic" in2="BackgroundImageFix" result="shape"/>
<feGaussianBlur stdDeviation="51.8159" result="effect1_foregroundBlur_98_330"/>
</filter>
<filter id="filter12_f_98_330" x="598.998" y="263.532" width="364.277" height="364.277" filterUnits="userSpaceOnUse" color-interpolation-filters="sRGB">
<feFlood flood-opacity="0" result="BackgroundImageFix"/>
<feBlend mode="normal" in="SourceGraphic" in2="BackgroundImageFix" result="shape"/>
<feGaussianBlur stdDeviation="53.9896" result="effect1_foregroundBlur_98_330"/>
</filter>
<filter id="filter13_f_98_330" x="719.918" y="143.927" width="359.421" height="359.421" filterUnits="userSpaceOnUse" color-interpolation-filters="sRGB">
<feFlood flood-opacity="0" result="BackgroundImageFix"/>
<feBlend mode="normal" in="SourceGraphic" in2="BackgroundImageFix" result="shape"/>
<feGaussianBlur stdDeviation="53.2698" result="effect1_foregroundBlur_98_330"/>
</filter>
<filter id="filter14_f_98_330" x="520.409" y="179.854" width="345.566" height="345.566" filterUnits="userSpaceOnUse" color-interpolation-filters="sRGB">
<feFlood flood-opacity="0" result="BackgroundImageFix"/>
<feBlend mode="normal" in="SourceGraphic" in2="BackgroundImageFix" result="shape"/>
<feGaussianBlur stdDeviation="51.2164" result="effect1_foregroundBlur_98_330"/>
</filter>
<linearGradient id="paint0_linear_98_330" x1="-88.9561" y1="229.308" x2="1861.89" y2="278.333" gradientUnits="userSpaceOnUse">
<stop stop-color="white"/>
<stop offset="1" stop-color="white" stop-opacity="0.9048"/>
</linearGradient>
<linearGradient id="paint1_linear_98_330" x1="-83.2184" y1="374.601" x2="1829.54" y2="226.117" gradientUnits="userSpaceOnUse">
<stop stop-color="white"/>
<stop offset="1" stop-color="white" stop-opacity="0.9714"/>
</linearGradient>
<linearGradient id="paint2_linear_98_330" x1="-79.1239" y1="394.276" x2="1824.67" y2="218.522" gradientUnits="userSpaceOnUse">
<stop stop-color="white"/>
<stop offset="1" stop-color="white" stop-opacity="0.981"/>
</linearGradient>
</defs>
</svg>
