<svg width="1440" height="834" viewBox="0 0 1440 834" fill="none" xmlns="http://www.w3.org/2000/svg">
<path d="M-111.597 442.834C-64.6084 413.897 135.976 186.116 887.955 313.936C1639.93 441.756 1846.58 344.474 1936.5 130.502" stroke="white" stroke-opacity="0.54" stroke-width="0.956708" stroke-miterlimit="10"/>
<path d="M-111.198 434.881C-66.4453 407.306 139.444 190.879 885.174 321.699C1630.9 452.519 1843.01 327.52 1928.72 123.697" stroke="white" stroke-opacity="0.54" stroke-width="0.956708" stroke-miterlimit="10"/>
<path d="M-110.76 426.935C-68.2496 400.739 142.892 195.736 882.475 329.801C1622.06 463.867 1839.61 311.202 1921.03 117.567" stroke="white" stroke-opacity="0.54" stroke-width="0.956708" stroke-miterlimit="10"/>
<path d="M-110.323 418.981C-70.0445 394.163 146.331 200.596 879.775 337.896C1613.22 475.196 1836.21 294.877 1913.35 111.438" stroke="white" stroke-opacity="0.54" stroke-width="0.956708" stroke-miterlimit="10"/>
<path d="M-109.887 411.023C-71.8502 387.585 149.778 205.442 877.072 345.978C1604.37 486.514 1832.81 278.539 1905.66 105.287" stroke="white" stroke-opacity="0.54" stroke-width="0.956708" stroke-miterlimit="10"/>
<path d="M-109.458 403.079C-73.6542 381.019 153.217 210.311 874.354 354.084C1595.49 497.857 1829.4 262.225 1897.96 99.1697" stroke="white" stroke-opacity="0.54" stroke-width="0.956708" stroke-miterlimit="10"/>
<path d="M-109.021 395.121C-75.4592 374.441 156.666 215.166 871.654 362.175C1586.64 509.184 1826 245.897 1890.27 93.0282" stroke="white" stroke-opacity="0.54" stroke-width="0.956708" stroke-miterlimit="10"/>
<path d="M-108.585 387.166C-77.2548 367.863 160.113 220.015 868.952 370.26C1577.79 520.504 1822.6 229.561 1882.58 86.8892" stroke="white" stroke-opacity="0.54" stroke-width="0.956708" stroke-miterlimit="10"/>
<path d="M-108.148 379.209C-79.06 361.285 163.551 224.872 866.251 378.351C1568.95 531.831 1819.19 213.234 1874.91 80.7468" stroke="white" stroke-opacity="0.54" stroke-width="0.956708" stroke-miterlimit="10"/>
<path d="M-107.71 371.263C-80.8544 354.718 166.999 229.73 863.542 386.455C1560.08 543.181 1815.78 196.918 1867.21 74.6277" stroke="white" stroke-opacity="0.54" stroke-width="0.956708" stroke-miterlimit="10"/>
<path d="M-107.273 363.308C-82.6598 348.141 170.447 234.587 860.84 394.539C1551.23 554.492 1812.38 180.582 1859.52 68.4789" stroke="white" stroke-opacity="0.54" stroke-width="0.956708" stroke-miterlimit="10"/>
<path d="M-106.846 355.352C-84.4743 341.566 173.875 239.437 858.13 402.633C1542.39 565.829 1808.97 164.256 1851.83 62.3491" stroke="url(#paint0_linear_60_34)" stroke-opacity="0.11" stroke-width="0.956708" stroke-miterlimit="10"/>
<path d="M-106.408 347.405C-86.2688 334.997 177.325 244.302 855.431 410.735C1533.54 577.167 1805.57 147.938 1844.14 56.2181" stroke="white" stroke-opacity="0.54" stroke-width="0.956708" stroke-miterlimit="10"/>
<path d="M-105.971 339.447C-88.074 328.418 180.772 249.148 852.719 418.817C1524.67 588.487 1802.17 131.61 1836.45 50.0773" stroke="white" stroke-opacity="0.54" stroke-width="0.956708" stroke-miterlimit="10"/>
<path d="M-105.534 331.493C-89.8695 321.841 184.22 254.006 850.019 426.911C1515.82 599.817 1798.76 115.285 1828.76 43.9388" stroke="white" stroke-opacity="0.54" stroke-width="0.956708" stroke-miterlimit="10"/>
<path d="M-105.096 323.544C-91.6735 315.272 187.658 258.863 847.32 435.012C1506.98 611.161 1795.36 98.9654 1821.07 37.8156" stroke="white" stroke-opacity="0.54" stroke-width="0.956708" stroke-miterlimit="10"/>
<path d="M-104.66 315.59C-93.469 308.696 191.106 263.722 844.619 443.107C1498.13 622.491 1791.95 82.6323 1813.38 31.6789" stroke="white" stroke-opacity="0.54" stroke-width="0.956708" stroke-miterlimit="10"/>
<path d="M-104.233 307.636C-95.2844 302.121 194.544 268.58 841.897 451.193C1489.25 633.806 1788.55 66.3057 1805.69 25.5395" stroke="white" stroke-opacity="0.54" stroke-width="0.956708" stroke-miterlimit="10"/>
<path d="M-103.795 299.68C-97.079 295.543 197.983 273.429 839.198 459.286C1480.41 645.142 1785.14 49.9796 1798 19.4098" stroke="url(#paint1_linear_60_34)" stroke-opacity="0.17" stroke-width="0.956708" stroke-miterlimit="10"/>
<path d="M-103.358 291.731C-98.8839 288.974 201.431 278.293 836.497 467.386C1471.56 656.479 1781.74 33.6509 1790.31 13.2684" stroke="url(#paint2_linear_60_34)" stroke-opacity="0.15" stroke-width="0.956708" stroke-miterlimit="10"/>
<path d="M-102.484 275.82C-102.484 275.82 208.327 287.999 831.085 483.564C1453.84 679.13 1774.93 0.999982 1774.93 0.999982" stroke="white" stroke-opacity="0.21" stroke-width="0.956708" stroke-miterlimit="10"/>
<path d="M-97.6255 290.15C-96.6113 288.827 218.429 276.982 830.556 471.258C1442.68 665.534 1762.25 36.2685 1777.62 30.2829" stroke="white" stroke-opacity="0.21" stroke-width="0.956708" stroke-miterlimit="10"/>
<path d="M-92.7658 304.492C-90.7375 301.845 228.543 265.985 830.028 458.973C1431.51 651.96 1749.58 71.539 1780.31 59.5689" stroke="white" stroke-opacity="0.21" stroke-width="0.956708" stroke-miterlimit="10"/>
<path d="M-87.906 318.823C-84.8636 314.854 238.657 254.978 829.489 446.669C1420.32 638.36 1736.89 106.791 1783.01 88.8538" stroke="white" stroke-opacity="0.21" stroke-width="0.956708" stroke-miterlimit="10"/>
<path d="M-83.0479 333.151C-79.0012 327.86 248.768 243.958 828.959 434.37C1409.15 624.781 1724.2 142.059 1785.69 118.136" stroke="white" stroke-opacity="0.21" stroke-width="0.956708" stroke-miterlimit="10"/>
<path d="M-78.1893 347.483C-73.1284 340.869 258.88 232.951 828.429 422.066C1397.98 611.18 1711.52 177.321 1788.38 147.413" stroke="white" stroke-opacity="0.21" stroke-width="0.956708" stroke-miterlimit="10"/>
<path d="M-73.32 361.814C-67.245 353.876 268.993 221.935 827.901 409.77C1386.81 597.605 1698.85 212.591 1791.08 176.698" stroke="white" stroke-opacity="0.21" stroke-width="0.956708" stroke-miterlimit="10"/>
<path d="M-68.4621 376.142C-61.3729 366.881 279.105 210.924 827.371 397.471C1375.64 584.017 1686.17 247.848 1793.77 205.979" stroke="white" stroke-opacity="0.21" stroke-width="0.956708" stroke-miterlimit="10"/>
<path d="M-63.6026 390.474C-55.4993 379.889 289.218 199.909 826.841 385.167C1364.47 570.425 1673.49 283.11 1796.45 235.256" stroke="white" stroke-opacity="0.21" stroke-width="0.956708" stroke-miterlimit="10"/>
<path d="M-58.7432 404.813C-49.6258 392.905 299.331 188.909 826.312 372.869C1353.29 556.83 1660.81 318.379 1799.15 264.539" stroke="white" stroke-opacity="0.21" stroke-width="0.956708" stroke-miterlimit="10"/>
<path d="M-53.8838 419.144C-43.7522 405.913 309.445 177.901 825.774 360.575C1342.1 543.248 1648.13 353.649 1801.83 293.825" stroke="white" stroke-opacity="0.21" stroke-width="0.956708" stroke-miterlimit="10"/>
<path d="M-49.0249 433.476C-37.8792 418.922 319.557 166.885 825.244 348.27C1330.93 529.655 1635.45 388.901 1804.52 323.101" stroke="white" stroke-opacity="0.21" stroke-width="0.956708" stroke-miterlimit="10"/>
<path d="M-44.1561 447.804C-32.0061 431.928 329.67 155.876 824.725 335.971C1319.78 516.067 1622.78 424.169 1807.23 352.392" stroke="white" stroke-opacity="0.21" stroke-width="0.956708" stroke-miterlimit="10"/>
<path d="M-39.2973 462.136C-26.1332 444.937 339.782 144.86 824.185 323.668C1308.59 502.476 1610.09 459.432 1809.91 381.669" stroke="white" stroke-opacity="0.21" stroke-width="0.956708" stroke-miterlimit="10"/>
<path d="M-34.4387 476.47C-20.2604 457.948 349.894 133.855 823.656 311.375C1297.42 488.894 1597.42 494.703 1812.6 410.956" stroke="white" stroke-opacity="0.21" stroke-width="0.956708" stroke-miterlimit="10"/>
<path d="M-29.5798 490.797C-14.3874 470.952 360.007 122.844 823.126 299.066C1286.24 475.288 1584.73 529.951 1815.3 440.228" stroke="white" stroke-opacity="0.21" stroke-width="0.956708" stroke-miterlimit="10"/>
<path d="M-24.7203 505.128C-8.51376 483.96 370.12 111.828 822.588 286.771C1275.06 461.715 1572.05 565.223 1817.98 469.514" stroke="white" stroke-opacity="0.21" stroke-width="0.956708" stroke-miterlimit="10"/>
<path d="M-19.8608 519.469C-2.64008 496.978 380.224 100.831 822.058 274.476C1263.89 448.121 1559.37 600.493 1820.68 498.799" stroke="white" stroke-opacity="0.21" stroke-width="0.956708" stroke-miterlimit="10"/>
<path d="M-14.9918 533.798C3.24302 509.983 390.345 89.8117 821.539 262.177C1252.73 434.543 1546.7 635.76 1823.37 528.082" stroke="white" stroke-opacity="0.21" stroke-width="0.956708" stroke-miterlimit="10"/>
<path d="M-10.1332 548.129C9.10591 522.992 400.458 78.8042 820.999 249.873C1241.54 420.943 1534.01 671.013 1826.05 557.358" stroke="white" stroke-opacity="0.21" stroke-width="0.956708" stroke-miterlimit="10"/>
<path d="M-5.27481 562.46C14.9785 536.001 410.571 67.7971 820.47 237.578C1230.37 407.358 1521.33 706.283 1828.74 586.643" stroke="white" stroke-opacity="0.21" stroke-width="0.956708" stroke-miterlimit="10"/>
<path d="M-0.416221 576.79C20.8512 549.007 420.683 56.7786 819.94 225.271C1219.2 393.763 1508.65 741.542 1831.44 615.926" stroke="white" stroke-opacity="0.24" stroke-width="0.956708" stroke-miterlimit="10"/>
<defs>
<linearGradient id="paint0_linear_60_34" x1="-103.956" y1="229.308" x2="1846.89" y2="278.333" gradientUnits="userSpaceOnUse">
<stop stop-color="white"/>
<stop offset="1" stop-color="white" stop-opacity="0.9048"/>
</linearGradient>
<linearGradient id="paint1_linear_60_34" x1="-98.2184" y1="374.601" x2="1814.54" y2="226.117" gradientUnits="userSpaceOnUse">
<stop stop-color="white"/>
<stop offset="1" stop-color="white" stop-opacity="0.9714"/>
</linearGradient>
<linearGradient id="paint2_linear_60_34" x1="-94.1239" y1="394.276" x2="1809.67" y2="218.522" gradientUnits="userSpaceOnUse">
<stop stop-color="white"/>
<stop offset="1" stop-color="white" stop-opacity="0.981"/>
</linearGradient>
</defs>
</svg>
