<svg width="48" height="55" viewBox="0 0 48 55" fill="none" xmlns="http://www.w3.org/2000/svg">
<path d="M24 0C10.7453 0 0 12.2339 0 27.3249C0 40.1392 7.74912 50.8921 18.2026 53.8454V35.6754H13.2538V27.3249H18.2026V23.7268C18.2026 14.4265 21.8995 10.1157 29.9194 10.1157C31.44 10.1157 34.0637 10.4556 35.137 10.7944V18.3634C34.5706 18.2957 33.5866 18.2618 32.3645 18.2618C28.4294 18.2618 26.9088 19.9592 26.9088 24.3716V27.3249H34.7482L33.4013 35.6754H26.9088V54.4498C38.7926 52.8158 48.001 41.2956 48.001 27.3249C48 12.2339 37.2547 0 24 0Z" fill="white"/>
</svg>
