<svg width="48" height="55" viewBox="0 0 48 55" fill="none" xmlns="http://www.w3.org/2000/svg">
<path d="M44.4469 0H3.54375C1.58437 0 0 1.76118 0 3.93863V50.7005C0 52.878 1.58437 54.6498 3.54375 54.6498H44.4469C46.4062 54.6498 48 52.878 48 50.7112V3.93863C48 1.76118 46.4062 0 44.4469 0ZM14.2406 46.5698H7.11563V20.483H14.2406V46.5698ZM10.6781 16.9286C8.39062 16.9286 6.54375 14.8259 6.54375 12.2322C6.54375 9.63844 8.39062 7.5357 10.6781 7.5357C12.9563 7.5357 14.8031 9.63844 14.8031 12.2322C14.8031 14.8152 12.9563 16.9286 10.6781 16.9286ZM40.9031 46.5698H33.7875V33.8893C33.7875 30.8686 33.7406 26.9727 30.0844 26.9727C26.3812 26.9727 25.8187 30.2709 25.8187 33.6758V46.5698H18.7125V20.483H25.5375V24.0481H25.6312C26.5781 21.9987 28.9031 19.8319 32.3625 19.8319C39.5719 19.8319 40.9031 25.2329 40.9031 32.2562V46.5698Z" fill="white"/>
</svg>
