<svg width="48" height="39" viewBox="0 0 48 39" fill="none" xmlns="http://www.w3.org/2000/svg">
<path d="M47.5219 8.29354C47.5219 8.29354 47.0531 4.52569 45.6094 2.87125C43.7812 0.693797 41.7375 0.683123 40.8 0.555037C34.0875 -3.0538e-07 24.0094 0 24.0094 0H23.9906C23.9906 0 13.9125 -3.0538e-07 7.2 0.555037C6.2625 0.683123 4.21875 0.693797 2.39062 2.87125C0.946875 4.52569 0.4875 8.29354 0.4875 8.29354C0.4875 8.29354 0 12.7232 0 17.1421V21.2836C0 25.7025 0.478125 30.1321 0.478125 30.1321C0.478125 30.1321 0.946875 33.9 2.38125 35.5544C4.20937 37.7319 6.60938 37.6572 7.67813 37.892C11.5219 38.3083 24 38.4363 24 38.4363C24 38.4363 34.0875 38.415 40.8 37.8706C41.7375 37.7425 43.7812 37.7319 45.6094 35.5544C47.0531 33.9 47.5219 30.1321 47.5219 30.1321C47.5219 30.1321 48 25.7132 48 21.2836V17.1421C48 12.7232 47.5219 8.29354 47.5219 8.29354ZM19.0406 26.3109V10.9513L32.0062 18.6578L19.0406 26.3109Z" fill="white"/>
</svg>
